<?xml version="1.0" encoding="UTF-8" standalone="no"?>
<!DOCTYPE svg PUBLIC "-//W3C//DTD SVG 1.1//EN" "http://www.w3.org/Graphics/SVG/1.1/DTD/svg11.dtd">
<svg width="100%" height="100%" viewBox="0 0 2462 2620" version="1.1" xmlns="http://www.w3.org/2000/svg" xmlns:xlink="http://www.w3.org/1999/xlink" xml:space="preserve" xmlns:serif="http://www.serif.com/" style="fill-rule:evenodd;clip-rule:evenodd;stroke-linejoin:round;stroke-miterlimit:2;">
    <g transform="matrix(1,0,0,1,-14.8596,2.13163e-14)">
        <g id="Layer-1" serif:id="Layer 1" transform="matrix(5.94969,0,0,5.94969,-665.533,-931.834)">
            <g transform="matrix(1,0,0,1,388.101,557.285)">
                <path d="M0,-382.418C176.635,-304.298 196.196,-57.115 0.156,39.295C-0.113,39.428 -0.426,39.221 -0.415,38.921C0.611,11.334 -8.837,-9.735 -22.876,-27.948C-23.03,-28.147 -22.961,-28.434 -22.733,-28.54C60.05,-67.193 108.94,-190.71 23.744,-280.413C-40.121,-346.759 -137.028,-341.744 -195.527,-289.682C-195.666,-289.558 -195.871,-289.55 -196.02,-289.661C-216.807,-305.156 -239.807,-315.006 -264.996,-319.273C-265.304,-319.325 -265.434,-319.697 -265.226,-319.929C-197.193,-395.742 -101.793,-421.846 0,-382.418" style="fill:rgb(203,51,51);fill-rule:nonzero;"/>
            </g>
            <g transform="matrix(-0.759328,-0.650708,-0.650708,0.759328,86.4832,439.151)">
                <path d="M-49.234,-141.443C-2.21,-191.207 47.837,-187.928 99.357,-158.78L-49.234,14.615C-92.144,59.66 -152.185,74.208 -200.905,35.547L-49.234,-141.443Z" style="fill:rgb(114,172,196);fill-rule:nonzero;"/>
            </g>
            <g transform="matrix(1,0,0,1,230.662,515.875)">
                <path d="M0,80.998L134.539,80.998C134.539,35.316 107.655,8.535 53.887,0.654C50.858,0.21 47.794,0 44.732,0L0,0L0,80.998Z" style="fill:rgb(114,172,196);fill-rule:nonzero;"/>
            </g>
        </g>
    </g>
</svg>
